#!OML:ASF F:\VICON\USERDATA\INSTALL\SteveWalk\SteveWalk.ASF
:FULLY-SPECIFIED
:DEGREES
61
root -0.612965 16.2342 -32.2153 17.4335 -4.34342 3.55393
lowerback -15.9353 0.414227 -6.04294
upperback -5.71643 1.55233 -2.45226
thorax 2.74482 0.794789 1.10831
lowerneck -2.54785 -0.698975 0.850177
upperneck 6.0688 -1.07302 1.57869
head 2.34856 -0.470908 0.324576
rclavicle 3.90115e-014 -2.98177e-014
rhumerus -37.4844 -1.14767 -88.4923
rradius 40.4874
rwrist -15.5541
rhand -16.4355 -37.5887
rfingers 7.12502
rthumb 9.77997 -67.3416
lclavicle 3.90115e-014 -2.98177e-014
lhumerus -55.5543 39.4199 45.8175
lradius 11.5215
lwrist -50.1437
lhand -12.4947 -14.632
lfingers 7.12502
lthumb 13.5802 14.9051
rfemur -31.8137 -2.82086 13.8904
rtibia 76.9088
rfoot 0.747118 4.80165
rtoes -15.8129
lfemur -39.3668 2.21274 -28.9169
ltibia 39.0726
lfoot -16.5421 -0.576331
ltoes -8.91882
62
root -0.596948 16.2679 -32.0101 17.1553 -3.81795 3.60603
lowerback -15.5983 0.207246 -5.94085
upperback -5.66858 1.23864 -2.39364
thorax 2.63695 0.641392 1.05367
lowerneck -2.30658 -0.635882 0.844417
upperneck 5.90133 -0.982806 1.59554
head 2.24903 -0.428324 0.333931
rclavicle -1.80646e-014 2.38542e-014
rhumerus -38.3169 -1.89155 -88.2887
rradius 38.9086
rwrist -16.17
rhand -17.2495 -37.6229
rfingers 7.12502
rthumb 8.99459 -67.4112
lclavicle -1.80646e-014 2.38542e-014
lhumerus -51.9838 37.5679 50.3508
lradius 11.9332
lwrist -47.0858
lhand -12.7101 -14.6633
lfingers 7.12502
lthumb 13.3726 14.8876
rfemur -33.0629 -3.13484 14.1659
rtibia 77.0606
rfoot -0.230461 4.73259
rtoes -15.3404
lfemur -37.9873 2.04426 -28.9295
ltibia 38.7144
lfoot -17.152 -0.745188
ltoes -9.34161
63
root -0.58109 16.2971 -31.8062 17.1038 -3.66921 3.37319
lowerback -15.4782 0.143587 -5.6403
upperback -5.6888 1.09485 -2.25694
thorax 2.56523 0.570903 1.00261
lowerneck -2.31206 -0.603296 0.810239
upperneck 6.12138 -0.938459 1.54294
head 2.32228 -0.406493 0.324419
rclavicle -2.06736e-014 3.18055e-014
rhumerus -39.012 -3.03831 -87.7177
rradius 36.931
rwrist -15.1513
rhand -16.8842 -36.5779
rfingers 7.12502
rthumb 9.34712 -66.3506
lclavicle -2.06736e-014 3.18055e-014
lhumerus -48.6218 35.388 54.6709
lradius 12.3392
lwrist -43.897
lhand -13.4371 -15.185
lfingers 7.12502
lthumb 12.6718 14.4106
rfemur -34.6077 -3.06244 14.6271
rtibia 77.0624
rfoot -1.22802 4.82449
rtoes -14.3621
lfemur -36.9455 2.1781 -28.7365
ltibia 38.4442
lfoot -17.8281 -0.84943
ltoes -8.85273
64
root -0.570939 16.318 -31.6041 16.9999 -3.59502 3.174
lowerback -15.3265 0.0820676 -5.45938
upperback -5.74769 0.966693 -2.09093
thorax 2.43061 0.511205 1.05162
lowerneck -2.29561 -0.616882 0.694844
upperneck 6.68151 -0.956023 1.47301
head 2.50545 -0.41543 0.321835
rclavicle 1.30825e-014 -4.05521e-014
rhumerus -40.209 -4.05558 -87.0403
rradius 35.7303
rwrist -13.679
rhand -16.012 -36.3162
rfingers 7.12502
rthumb 10.1886 -66.0495
lclavicle 1.30825e-014 -4.05521e-014
lhumerus -45.5277 32.3954 59.1049
lradius 13.0522
lwrist -39.9742
lhand -13.7766 -14.9093
lfingers 7.12502
lthumb 12.3445 14.7063
rfemur -36.0666 -2.87447 15.0693
rtibia 76.8724
rfoot -2.46934 4.85839
rtoes -12.7058
lfemur -35.8306 2.2957 -28.5401
ltibia 38.1849
lfoot -18.4492 -0.906825
ltoes -8.01538
65
root -0.569196 16.3301 -31.4126 16.8971 -3.25776 3.15939
lowerback -15.0144 -0.124301 -5.56253
upperback -5.91049 0.672362 -1.91336
thorax 2.10409 0.378133 1.2432
lowerneck -1.97974 -0.609731 0.68594
upperneck 7.16347 -0.932401 1.21896
head 2.60638 -0.409197 0.244112
rclavicle -8.02593e-015 -1.19271e-014
rhumerus -41.695 -4.80043 -86.4247
rradius 34.8797
rwrist -12.6245
rhand -15.7096 -36.2589
rfingers 7.12502
rthumb 10.4803 -65.9777
lclavicle -8.02593e-015 -1.19271e-014
lhumerus -43.0989 29.3945 62.7659
lradius 13.8572
lwrist -36.4322
lhand -13.5343 -14.7506
lfingers 7.12502
lthumb 12.5782 14.8508
rfemur -37.4745 -2.88584 15.4596
rtibia 76.4921
rfoot -4.06391 4.63809
rtoes -12.0666
lfemur -34.7966 2.39146 -28.4986
ltibia 37.965
lfoot -19.0384 -1.20704
ltoes -7.84906
66
root -0.574775 16.3319 -31.2391 17.138 -2.59648 3.15776
lowerback -14.9662 -0.48995 -5.70057
upperback -6.04231 0.194513 -1.7175
thorax 1.96501 0.150066 1.44751
lowerneck -1.52911 -0.348536 0.431599
upperneck 6.65006 -0.581412 1.55237
head 2.35443 -0.236876 0.40307
rclavicle 8.03835e-015 -3.97569e-016
rhumerus -42.5177 -5.67056 -85.7464
rradius 33.2582
rwrist -11.5468
rhand -15.6425 -35.5293
rfingers 7.12502
rthumb 10.5451 -65.2448
lclavicle 8.03835e-015 -3.97569e-016
lhumerus -40.7837 26.9892 65.7128
lradius 14.6002
lwrist -33.5325
lhand -13.1347 -15.4489
lfingers 7.12502
lthumb 12.9634 14.1284
rfemur -39.2676 -3.15855 15.9937
rtibia 75.9727
rfoot -5.70213 4.17143
rtoes -13.0086
lfemur -34.2079 2.53063 -28.4677
ltibia 37.7195
lfoot -19.4999 -1.86755
ltoes -7.04768
67
root -0.545579 16.3496 -31.0019 16.5463 -3.28084 2.79044
lowerback -15.5338 -0.202933 -4.95962
upperback -5.4289 0.53458 -1.75123
thorax 2.90712 0.280229 1.05657
lowerneck -1.80824 -0.461534 0.502805
upperneck 7.08237 -0.738062 1.44107
head 2.54919 -0.312044 0.351977
rclavicle -1.90088e-015 -8.34896e-015
rhumerus -42.6679 -6.75919 -85.1628
rradius 31.3846
rwrist -10.5945
rhand -15.3045 -35.4255
rfingers 7.12502
rthumb 10.871 -65.1241
lclavicle -1.90088e-015 -8.34896e-015
lhumerus -38.0795 24.761 68.3406
lradius 15.3752
lwrist -30.6646
lhand -12.8838 -15.887
lfingers 7.12502
lthumb 13.2052 13.6747
rfemur -39.9395 -2.3104 16.2496
rtibia 74.9899
rfoot -7.56547 4.02494
rtoes -13.456
lfemur -32.3855 3.25478 -28.3358
ltibia 37.3931
lfoot -20.0725 -1.2542
ltoes -7.14936
68
root -0.542954 16.3736 -30.7977 16.4242 -2.79812 2.83717
lowerback -15.3927 -0.441424 -5.1376
upperback -5.38308 0.234078 -1.60021
thorax 2.89346 0.133318 1.26237
lowerneck -1.7653 -0.475699 0.421208
upperneck 7.32274 -0.757609 1.45252
head 2.62226 -0.322167 0.369482
rclavicle 1.45361e-015 -1.98785e-015
rhumerus -43.416 -7.80038 -84.2207
rradius 29.694
rwrist -9.44823
rhand -14.7573 -35.8905
rfingers 7.12502
rthumb 11.3988 -65.5607
lclavicle 1.45361e-015 -1.98785e-015
lhumerus -36.0988 22.6039 70.4739
lradius 16.0678
lwrist -28.1743
lhand -13.1649 -16.17
lfingers 7.12502
lthumb 12.9342 13.4092
rfemur -41.1553 -2.45012 16.5681
rtibia 73.8486
rfoot -9.30819 3.73356
rtoes -12.4266
lfemur -31.2888 3.67122 -28.4344
ltibia 36.9641
lfoot -20.4873 -1.65128
ltoes -8.35518
69
root -0.53936 16.383 -30.5926 16.1459 -2.52704 2.86665
lowerback -14.9607 -0.616781 -5.22657
upperback -5.39302 -0.0184355 -1.48489
thorax 2.66609 0.0147098 1.39022
lowerneck -1.91159 -0.449663 0.337848
upperneck 7.73452 -0.730601 1.50583
head 2.78842 -0.306102 0.402222
rclavicle 5.61567e-015 -1.23246e-014
rhumerus -44.3423 -8.93524 -83.126
rradius 27.9476
rwrist -7.96279
rhand -14.3637 -35.6689
rfingers 7.12502
rthumb 11.7784 -65.3177
lclavicle 5.61567e-015 -1.23246e-014
lhumerus -34.3843 20.4954 72.2448
lradius 16.8068
lwrist -25.8398
lhand -13.6198 -16.0191
lfingers 7.12502
lthumb 12.4957 13.5873
rfemur -42.0755 -2.39985 16.8299
rtibia 72.4543
rfoot -10.4795 3.36081
rtoes -13.1824
lfemur -30.0031 4.15113 -28.5043
ltibia 36.6177
lfoot -20.9972 -2.06236
ltoes -8.26115
70
root -0.528476 16.3923 -30.3697 15.7534 -1.25839 3.23016
lowerback -14.6315 -1.09759 -5.36452
upperback -5.33967 -0.650592 -1.50025
thorax 2.58504 -0.29649 1.34708
lowerneck -1.71747 -0.448531 0.192952
upperneck 7.96318 -0.741491 1.73101
head 2.83193 -0.307946 0.499831
rclavicle 2.86995e-015 6.36111e-015
rhumerus -45.509 -10.1812 -81.9229
rradius 26.3769
rwrist -6.60052
rhand -14.3809 -35.2159
rfingers 7.12502
rthumb 11.7618 -64.8656
lclavicle 2.86995e-015 6.36111e-015
lhumerus -32.9104 17.8 73.9647
lradius 17.8334
lwrist -23.0022
lhand -14.2404 -15.7409
lfingers 7.12502
lthumb 11.8973 13.9011
rfemur -42.3908 -3.33636 16.956
rtibia 70.8469
rfoot -11.7562 2.73022
rtoes -12.8531
lfemur -28.4196 3.81101 -28.6461
ltibia 36.3807
lfoot -21.5666 -2.83178
ltoes -7.12952
71
root -0.521207 16.3829 -30.1703 16.0634 -1.49944 2.94188
lowerback -14.8514 -1.01035 -5.13314
upperback -5.54838 -0.566688 -1.37574
thorax 2.47764 -0.250381 1.36079
lowerneck -1.11647 -0.441661 0.0766318
upperneck 7.72536 -0.726666 1.8335
head 2.64178 -0.305408 0.552564
rclavicle -8.15017e-015 -1.47101e-014
rhumerus -46.6566 -11.533 -80.4892
rradius 24.9518
rwrist -4.92881
rhand -14.4006 -35.5927
rfingers 7.12502
rthumb 11.7428 -65.2436
lclavicle -8.15017e-015 -1.47101e-014
lhumerus -31.5902 14.987 75.5753
lradius 18.9959
lwrist -20.1108
lhand -15.0329 -15.8806
lfingers 7.12502
lthumb 11.133 13.8041
rfemur -43.9381 -2.74485 17.4299
rtibia 69.1135
rfoot -12.4961 2.11501
rtoes -12.2476
lfemur -27.932 4.47076 -28.4913
ltibia 36.3299
lfoot -21.9682 -3.29841
ltoes -5.73
72
root -0.520224 16.3683 -29.9739 16.2817 -1.3107 2.68784
lowerback -14.8924 -1.09161 -5.03403
upperback -5.54207 -0.690945 -1.19715
thorax 2.51529 -0.312255 1.47097
lowerneck -2.36638 -0.577165 0.36481
upperneck 8.61256 -0.925199 1.55377
head 3.17445 -0.392503 0.407791
rclavicle -8.94531e-016 1.35174e-014
rhumerus -47.4271 -13.0243 -78.9338
rradius 23.5457
rwrist -2.66734
rhand -14.265 -36.2539
rfingers 7.12502
rthumb 11.8735 -65.8972
lclavicle -8.94531e-016 1.35174e-014
lhumerus -30.0109 12.4036 77.0027
lradius 20.1547
lwrist -17.3447
lhand -15.6725 -15.7706
lfingers 7.12502
lthumb 10.5161 13.9464
rfemur -45.2089 -2.40235 17.9945
rtibia 67.1793
rfoot -13.1191 1.10254
rtoes -13.2409
lfemur -27.3518 4.99104 -28.2332
ltibia 36.1998
lfoot -22.3522 -4.10941
ltoes -4.2203
